<mxfile host="app.diagrams.net" modified="2022-09-11T11:38:06.435Z" agent="5.0 (Windows NT 10.0; Win64; x64) AppleWebKit/537.36 (KHTML, like Gecko) Chrome/105.0.0.0 Safari/537.36" etag="N43mD48l8rHZ7F_U8fxv" version="20.3.0" type="github">
  <diagram id="OD12084eJvB-rHa-j5aZ" name="第 1 页">
    <mxGraphModel dx="1422" dy="851" grid="1" gridSize="10" guides="1" tooltips="1" connect="1" arrows="1" fold="1" page="1" pageScale="1" pageWidth="827" pageHeight="1169" math="0" shadow="0">
      <root>
        <mxCell id="0" />
        <mxCell id="1" parent="0" />
        <mxCell id="e4gEt2wWb0Jjv1eaQD8x-2" value="" style="endArrow=none;html=1;rounded=0;" edge="1" parent="1">
          <mxGeometry width="50" height="50" relative="1" as="geometry">
            <mxPoint x="399" y="120" as="sourcePoint" />
            <mxPoint x="399" y="80" as="targetPoint" />
          </mxGeometry>
        </mxCell>
        <mxCell id="e4gEt2wWb0Jjv1eaQD8x-3" value="" style="endArrow=none;html=1;rounded=0;" edge="1" parent="1">
          <mxGeometry width="50" height="50" relative="1" as="geometry">
            <mxPoint x="280" y="120" as="sourcePoint" />
            <mxPoint x="400" y="120" as="targetPoint" />
          </mxGeometry>
        </mxCell>
        <mxCell id="e4gEt2wWb0Jjv1eaQD8x-5" value="" style="endArrow=classic;html=1;rounded=0;" edge="1" parent="1">
          <mxGeometry width="50" height="50" relative="1" as="geometry">
            <mxPoint x="280" y="120" as="sourcePoint" />
            <mxPoint x="280" y="160" as="targetPoint" />
          </mxGeometry>
        </mxCell>
        <mxCell id="e4gEt2wWb0Jjv1eaQD8x-13" style="edgeStyle=orthogonalEdgeStyle;rounded=0;orthogonalLoop=1;jettySize=auto;html=1;exitX=0.5;exitY=1;exitDx=0;exitDy=0;fontSize=14;" edge="1" parent="1" source="e4gEt2wWb0Jjv1eaQD8x-6">
          <mxGeometry relative="1" as="geometry">
            <mxPoint x="280" y="230" as="targetPoint" />
            <Array as="points">
              <mxPoint x="280" y="230" />
              <mxPoint x="280" y="230" />
            </Array>
          </mxGeometry>
        </mxCell>
        <mxCell id="e4gEt2wWb0Jjv1eaQD8x-6" value="&lt;font style=&quot;font-size: 14px;&quot;&gt;H Avgpool&lt;/font&gt;" style="rounded=0;whiteSpace=wrap;html=1;" vertex="1" parent="1">
          <mxGeometry x="235" y="160" width="90" height="30" as="geometry" />
        </mxCell>
        <mxCell id="e4gEt2wWb0Jjv1eaQD8x-7" value="" style="endArrow=classic;html=1;rounded=0;fontSize=14;" edge="1" parent="1">
          <mxGeometry width="50" height="50" relative="1" as="geometry">
            <mxPoint x="399" y="120" as="sourcePoint" />
            <mxPoint x="399" y="160" as="targetPoint" />
          </mxGeometry>
        </mxCell>
        <mxCell id="e4gEt2wWb0Jjv1eaQD8x-17" style="edgeStyle=orthogonalEdgeStyle;rounded=0;orthogonalLoop=1;jettySize=auto;html=1;exitX=0.5;exitY=1;exitDx=0;exitDy=0;entryX=0.5;entryY=0;entryDx=0;entryDy=0;fontSize=14;" edge="1" parent="1" source="e4gEt2wWb0Jjv1eaQD8x-8" target="e4gEt2wWb0Jjv1eaQD8x-15">
          <mxGeometry relative="1" as="geometry" />
        </mxCell>
        <mxCell id="e4gEt2wWb0Jjv1eaQD8x-8" value="&lt;font style=&quot;font-size: 14px;&quot;&gt;&amp;nbsp;Avgpool&lt;/font&gt;" style="rounded=0;whiteSpace=wrap;html=1;" vertex="1" parent="1">
          <mxGeometry x="354" y="160" width="90" height="30" as="geometry" />
        </mxCell>
        <mxCell id="e4gEt2wWb0Jjv1eaQD8x-9" value="" style="endArrow=none;html=1;rounded=0;fontSize=14;" edge="1" parent="1">
          <mxGeometry width="50" height="50" relative="1" as="geometry">
            <mxPoint x="400" y="120" as="sourcePoint" />
            <mxPoint x="520" y="120" as="targetPoint" />
          </mxGeometry>
        </mxCell>
        <mxCell id="e4gEt2wWb0Jjv1eaQD8x-10" value="" style="endArrow=classic;html=1;rounded=0;fontSize=14;" edge="1" parent="1">
          <mxGeometry width="50" height="50" relative="1" as="geometry">
            <mxPoint x="520" y="120" as="sourcePoint" />
            <mxPoint x="520" y="160" as="targetPoint" />
          </mxGeometry>
        </mxCell>
        <mxCell id="e4gEt2wWb0Jjv1eaQD8x-18" style="edgeStyle=orthogonalEdgeStyle;rounded=0;orthogonalLoop=1;jettySize=auto;html=1;exitX=0.5;exitY=1;exitDx=0;exitDy=0;entryX=0.5;entryY=0;entryDx=0;entryDy=0;fontSize=14;" edge="1" parent="1">
          <mxGeometry relative="1" as="geometry">
            <mxPoint x="520" y="190" as="sourcePoint" />
            <mxPoint x="520" y="230" as="targetPoint" />
          </mxGeometry>
        </mxCell>
        <mxCell id="e4gEt2wWb0Jjv1eaQD8x-11" value="&lt;font style=&quot;font-size: 14px;&quot;&gt;W Avgpool&lt;/font&gt;" style="rounded=0;whiteSpace=wrap;html=1;" vertex="1" parent="1">
          <mxGeometry x="476" y="160" width="90" height="30" as="geometry" />
        </mxCell>
        <mxCell id="e4gEt2wWb0Jjv1eaQD8x-14" value="&lt;span style=&quot;font-size: 14px;&quot;&gt;3x1 Conv&lt;/span&gt;" style="rounded=0;whiteSpace=wrap;html=1;" vertex="1" parent="1">
          <mxGeometry x="235" y="230" width="90" height="30" as="geometry" />
        </mxCell>
        <mxCell id="e4gEt2wWb0Jjv1eaQD8x-23" style="edgeStyle=orthogonalEdgeStyle;rounded=0;orthogonalLoop=1;jettySize=auto;html=1;exitX=0.5;exitY=1;exitDx=0;exitDy=0;entryX=0.5;entryY=0;entryDx=0;entryDy=0;fontSize=14;" edge="1" parent="1" source="e4gEt2wWb0Jjv1eaQD8x-15" target="e4gEt2wWb0Jjv1eaQD8x-21">
          <mxGeometry relative="1" as="geometry" />
        </mxCell>
        <mxCell id="e4gEt2wWb0Jjv1eaQD8x-15" value="&lt;span style=&quot;font-size: 14px;&quot;&gt;3x3 Conv&lt;/span&gt;" style="rounded=0;whiteSpace=wrap;html=1;" vertex="1" parent="1">
          <mxGeometry x="354" y="230" width="90" height="30" as="geometry" />
        </mxCell>
        <mxCell id="e4gEt2wWb0Jjv1eaQD8x-24" style="edgeStyle=orthogonalEdgeStyle;rounded=0;orthogonalLoop=1;jettySize=auto;html=1;exitX=0.5;exitY=1;exitDx=0;exitDy=0;entryX=0.5;entryY=0;entryDx=0;entryDy=0;fontSize=14;" edge="1" parent="1">
          <mxGeometry relative="1" as="geometry">
            <mxPoint x="519" y="260" as="sourcePoint" />
            <mxPoint x="519" y="300" as="targetPoint" />
          </mxGeometry>
        </mxCell>
        <mxCell id="e4gEt2wWb0Jjv1eaQD8x-16" value="&lt;span style=&quot;font-size: 14px;&quot;&gt;1x3 Conv&lt;/span&gt;" style="rounded=0;whiteSpace=wrap;html=1;" vertex="1" parent="1">
          <mxGeometry x="476" y="230" width="90" height="30" as="geometry" />
        </mxCell>
        <mxCell id="e4gEt2wWb0Jjv1eaQD8x-19" value="" style="endArrow=classic;html=1;rounded=0;fontSize=14;exitX=0.5;exitY=1;exitDx=0;exitDy=0;" edge="1" parent="1" source="e4gEt2wWb0Jjv1eaQD8x-14">
          <mxGeometry width="50" height="50" relative="1" as="geometry">
            <mxPoint x="340" y="270" as="sourcePoint" />
            <mxPoint x="280" y="300" as="targetPoint" />
          </mxGeometry>
        </mxCell>
        <mxCell id="e4gEt2wWb0Jjv1eaQD8x-29" style="edgeStyle=orthogonalEdgeStyle;rounded=0;orthogonalLoop=1;jettySize=auto;html=1;exitX=0.5;exitY=1;exitDx=0;exitDy=0;entryX=0.5;entryY=0;entryDx=0;entryDy=0;fontSize=14;" edge="1" parent="1" source="e4gEt2wWb0Jjv1eaQD8x-20" target="e4gEt2wWb0Jjv1eaQD8x-26">
          <mxGeometry relative="1" as="geometry" />
        </mxCell>
        <mxCell id="e4gEt2wWb0Jjv1eaQD8x-20" value="&lt;span style=&quot;font-size: 14px;&quot;&gt;BatchNorm&lt;/span&gt;" style="rounded=0;whiteSpace=wrap;html=1;" vertex="1" parent="1">
          <mxGeometry x="235" y="300" width="90" height="30" as="geometry" />
        </mxCell>
        <mxCell id="e4gEt2wWb0Jjv1eaQD8x-30" style="edgeStyle=orthogonalEdgeStyle;rounded=0;orthogonalLoop=1;jettySize=auto;html=1;exitX=0.5;exitY=1;exitDx=0;exitDy=0;entryX=0.5;entryY=0;entryDx=0;entryDy=0;fontSize=14;" edge="1" parent="1" source="e4gEt2wWb0Jjv1eaQD8x-21" target="e4gEt2wWb0Jjv1eaQD8x-27">
          <mxGeometry relative="1" as="geometry" />
        </mxCell>
        <mxCell id="e4gEt2wWb0Jjv1eaQD8x-21" value="&lt;span style=&quot;font-size: 14px;&quot;&gt;BatchNorm&lt;/span&gt;" style="rounded=0;whiteSpace=wrap;html=1;" vertex="1" parent="1">
          <mxGeometry x="354" y="300" width="90" height="30" as="geometry" />
        </mxCell>
        <mxCell id="e4gEt2wWb0Jjv1eaQD8x-31" style="edgeStyle=orthogonalEdgeStyle;rounded=0;orthogonalLoop=1;jettySize=auto;html=1;exitX=0.5;exitY=1;exitDx=0;exitDy=0;entryX=0.5;entryY=0;entryDx=0;entryDy=0;fontSize=14;" edge="1" parent="1">
          <mxGeometry relative="1" as="geometry">
            <mxPoint x="519" y="330" as="sourcePoint" />
            <mxPoint x="519" y="370" as="targetPoint" />
          </mxGeometry>
        </mxCell>
        <mxCell id="e4gEt2wWb0Jjv1eaQD8x-22" value="&lt;span style=&quot;font-size: 14px;&quot;&gt;BatchNorm&lt;/span&gt;" style="rounded=0;whiteSpace=wrap;html=1;" vertex="1" parent="1">
          <mxGeometry x="476" y="300" width="90" height="30" as="geometry" />
        </mxCell>
        <mxCell id="e4gEt2wWb0Jjv1eaQD8x-35" style="edgeStyle=orthogonalEdgeStyle;rounded=0;orthogonalLoop=1;jettySize=auto;html=1;exitX=0.5;exitY=1;exitDx=0;exitDy=0;entryX=0.5;entryY=0;entryDx=0;entryDy=0;fontSize=14;" edge="1" parent="1" source="e4gEt2wWb0Jjv1eaQD8x-26" target="e4gEt2wWb0Jjv1eaQD8x-32">
          <mxGeometry relative="1" as="geometry" />
        </mxCell>
        <mxCell id="e4gEt2wWb0Jjv1eaQD8x-26" value="Sigmoid" style="rounded=1;whiteSpace=wrap;html=1;fontSize=14;" vertex="1" parent="1">
          <mxGeometry x="237" y="370" width="85" height="30" as="geometry" />
        </mxCell>
        <mxCell id="e4gEt2wWb0Jjv1eaQD8x-36" style="edgeStyle=orthogonalEdgeStyle;rounded=0;orthogonalLoop=1;jettySize=auto;html=1;exitX=0.5;exitY=1;exitDx=0;exitDy=0;entryX=0.5;entryY=0;entryDx=0;entryDy=0;fontSize=14;" edge="1" parent="1" source="e4gEt2wWb0Jjv1eaQD8x-27">
          <mxGeometry relative="1" as="geometry">
            <mxPoint x="399" y="430" as="targetPoint" />
          </mxGeometry>
        </mxCell>
        <mxCell id="e4gEt2wWb0Jjv1eaQD8x-27" value="Sigmoid" style="rounded=1;whiteSpace=wrap;html=1;fontSize=14;" vertex="1" parent="1">
          <mxGeometry x="356.5" y="370" width="85" height="30" as="geometry" />
        </mxCell>
        <mxCell id="e4gEt2wWb0Jjv1eaQD8x-37" style="edgeStyle=orthogonalEdgeStyle;rounded=0;orthogonalLoop=1;jettySize=auto;html=1;exitX=0.5;exitY=1;exitDx=0;exitDy=0;entryX=0.5;entryY=0;entryDx=0;entryDy=0;fontSize=14;" edge="1" parent="1">
          <mxGeometry relative="1" as="geometry">
            <mxPoint x="519" y="400" as="sourcePoint" />
            <mxPoint x="519" y="430" as="targetPoint" />
          </mxGeometry>
        </mxCell>
        <mxCell id="e4gEt2wWb0Jjv1eaQD8x-28" value="Sigmoid" style="rounded=1;whiteSpace=wrap;html=1;fontSize=14;" vertex="1" parent="1">
          <mxGeometry x="478.5" y="370" width="85" height="30" as="geometry" />
        </mxCell>
        <mxCell id="e4gEt2wWb0Jjv1eaQD8x-32" value="" style="ellipse;whiteSpace=wrap;html=1;aspect=fixed;fontSize=14;" vertex="1" parent="1">
          <mxGeometry x="264.5" y="430" width="30" height="30" as="geometry" />
        </mxCell>
        <mxCell id="e4gEt2wWb0Jjv1eaQD8x-38" value="" style="ellipse;whiteSpace=wrap;html=1;aspect=fixed;fontSize=14;" vertex="1" parent="1">
          <mxGeometry x="30" y="290" as="geometry" />
        </mxCell>
        <mxCell id="e4gEt2wWb0Jjv1eaQD8x-39" value="" style="ellipse;whiteSpace=wrap;html=1;aspect=fixed;fontSize=14;strokeColor=#000000;fillColor=#000000;" vertex="1" parent="1">
          <mxGeometry x="277" y="442.5" width="5" height="5" as="geometry" />
        </mxCell>
        <mxCell id="e4gEt2wWb0Jjv1eaQD8x-42" value="" style="ellipse;whiteSpace=wrap;html=1;aspect=fixed;fontSize=14;" vertex="1" parent="1">
          <mxGeometry x="384" y="430" width="30" height="30" as="geometry" />
        </mxCell>
        <mxCell id="e4gEt2wWb0Jjv1eaQD8x-43" value="" style="ellipse;whiteSpace=wrap;html=1;aspect=fixed;fontSize=14;strokeColor=#000000;fillColor=#000000;" vertex="1" parent="1">
          <mxGeometry x="396.5" y="442.5" width="5" height="5" as="geometry" />
        </mxCell>
        <mxCell id="e4gEt2wWb0Jjv1eaQD8x-46" value="" style="ellipse;whiteSpace=wrap;html=1;aspect=fixed;fontSize=14;" vertex="1" parent="1">
          <mxGeometry x="504" y="430" width="30" height="30" as="geometry" />
        </mxCell>
        <mxCell id="e4gEt2wWb0Jjv1eaQD8x-47" value="" style="ellipse;whiteSpace=wrap;html=1;aspect=fixed;fontSize=14;strokeColor=#000000;fillColor=#000000;" vertex="1" parent="1">
          <mxGeometry x="516.5" y="441.5" width="5" height="5" as="geometry" />
        </mxCell>
        <mxCell id="e4gEt2wWb0Jjv1eaQD8x-54" value="" style="endArrow=none;html=1;rounded=0;fontSize=14;" edge="1" parent="1">
          <mxGeometry width="50" height="50" relative="1" as="geometry">
            <mxPoint x="200" y="140" as="sourcePoint" />
            <mxPoint x="280" y="140" as="targetPoint" />
          </mxGeometry>
        </mxCell>
        <mxCell id="e4gEt2wWb0Jjv1eaQD8x-55" value="" style="endArrow=none;html=1;rounded=0;fontSize=14;" edge="1" parent="1">
          <mxGeometry width="50" height="50" relative="1" as="geometry">
            <mxPoint x="200" y="445" as="sourcePoint" />
            <mxPoint x="200" y="140" as="targetPoint" />
          </mxGeometry>
        </mxCell>
        <mxCell id="e4gEt2wWb0Jjv1eaQD8x-56" value="" style="endArrow=classic;html=1;rounded=0;fontSize=14;entryX=0;entryY=0.5;entryDx=0;entryDy=0;" edge="1" parent="1" target="e4gEt2wWb0Jjv1eaQD8x-32">
          <mxGeometry width="50" height="50" relative="1" as="geometry">
            <mxPoint x="200" y="445" as="sourcePoint" />
            <mxPoint x="260" y="444" as="targetPoint" />
          </mxGeometry>
        </mxCell>
        <mxCell id="e4gEt2wWb0Jjv1eaQD8x-96" value="" style="endArrow=none;html=1;rounded=0;fontSize=14;" edge="1" parent="1">
          <mxGeometry width="50" height="50" relative="1" as="geometry">
            <mxPoint x="340" y="140" as="sourcePoint" />
            <mxPoint x="400" y="140" as="targetPoint" />
          </mxGeometry>
        </mxCell>
        <mxCell id="e4gEt2wWb0Jjv1eaQD8x-97" value="" style="endArrow=none;html=1;rounded=0;fontSize=14;" edge="1" parent="1">
          <mxGeometry width="50" height="50" relative="1" as="geometry">
            <mxPoint x="340" y="446" as="sourcePoint" />
            <mxPoint x="340" y="140" as="targetPoint" />
          </mxGeometry>
        </mxCell>
        <mxCell id="e4gEt2wWb0Jjv1eaQD8x-98" value="" style="endArrow=classic;html=1;rounded=0;fontSize=14;" edge="1" parent="1">
          <mxGeometry width="50" height="50" relative="1" as="geometry">
            <mxPoint x="340" y="445" as="sourcePoint" />
            <mxPoint x="384" y="445" as="targetPoint" />
          </mxGeometry>
        </mxCell>
        <mxCell id="e4gEt2wWb0Jjv1eaQD8x-99" value="" style="endArrow=none;html=1;rounded=0;fontSize=14;" edge="1" parent="1">
          <mxGeometry width="50" height="50" relative="1" as="geometry">
            <mxPoint x="460" y="446.5" as="sourcePoint" />
            <mxPoint x="460" y="140.5" as="targetPoint" />
          </mxGeometry>
        </mxCell>
        <mxCell id="e4gEt2wWb0Jjv1eaQD8x-100" value="" style="endArrow=classic;html=1;rounded=0;fontSize=14;" edge="1" parent="1">
          <mxGeometry width="50" height="50" relative="1" as="geometry">
            <mxPoint x="460" y="445.5" as="sourcePoint" />
            <mxPoint x="504" y="445.5" as="targetPoint" />
          </mxGeometry>
        </mxCell>
        <mxCell id="e4gEt2wWb0Jjv1eaQD8x-101" value="" style="endArrow=none;html=1;rounded=0;fontSize=14;" edge="1" parent="1">
          <mxGeometry width="50" height="50" relative="1" as="geometry">
            <mxPoint x="460" y="140" as="sourcePoint" />
            <mxPoint x="520" y="140" as="targetPoint" />
          </mxGeometry>
        </mxCell>
        <mxCell id="e4gEt2wWb0Jjv1eaQD8x-103" value="" style="endArrow=none;html=1;rounded=0;fontSize=14;entryX=0.5;entryY=1;entryDx=0;entryDy=0;" edge="1" parent="1" target="e4gEt2wWb0Jjv1eaQD8x-32">
          <mxGeometry width="50" height="50" relative="1" as="geometry">
            <mxPoint x="280" y="490" as="sourcePoint" />
            <mxPoint x="330" y="500" as="targetPoint" />
          </mxGeometry>
        </mxCell>
        <mxCell id="e4gEt2wWb0Jjv1eaQD8x-104" value="" style="endArrow=none;html=1;rounded=0;fontSize=14;" edge="1" parent="1">
          <mxGeometry width="50" height="50" relative="1" as="geometry">
            <mxPoint x="280" y="490" as="sourcePoint" />
            <mxPoint x="380" y="490" as="targetPoint" />
          </mxGeometry>
        </mxCell>
        <mxCell id="e4gEt2wWb0Jjv1eaQD8x-105" value="" style="endArrow=none;html=1;rounded=0;fontSize=14;entryX=0.5;entryY=1;entryDx=0;entryDy=0;startArrow=none;exitX=0.5;exitY=0;exitDx=0;exitDy=0;" edge="1" parent="1" source="e4gEt2wWb0Jjv1eaQD8x-110" target="e4gEt2wWb0Jjv1eaQD8x-42">
          <mxGeometry width="50" height="50" relative="1" as="geometry">
            <mxPoint x="399" y="470" as="sourcePoint" />
            <mxPoint x="440" y="510" as="targetPoint" />
          </mxGeometry>
        </mxCell>
        <mxCell id="e4gEt2wWb0Jjv1eaQD8x-106" value="" style="endArrow=none;html=1;rounded=0;fontSize=14;entryX=0.5;entryY=1;entryDx=0;entryDy=0;" edge="1" parent="1" target="e4gEt2wWb0Jjv1eaQD8x-46">
          <mxGeometry width="50" height="50" relative="1" as="geometry">
            <mxPoint x="519" y="490" as="sourcePoint" />
            <mxPoint x="530" y="500" as="targetPoint" />
          </mxGeometry>
        </mxCell>
        <mxCell id="e4gEt2wWb0Jjv1eaQD8x-107" value="" style="endArrow=none;html=1;rounded=0;fontSize=14;" edge="1" parent="1">
          <mxGeometry width="50" height="50" relative="1" as="geometry">
            <mxPoint x="420" y="490" as="sourcePoint" />
            <mxPoint x="520" y="490" as="targetPoint" />
          </mxGeometry>
        </mxCell>
        <mxCell id="e4gEt2wWb0Jjv1eaQD8x-111" style="edgeStyle=orthogonalEdgeStyle;rounded=0;orthogonalLoop=1;jettySize=auto;html=1;exitX=0.5;exitY=1;exitDx=0;exitDy=0;fontSize=14;" edge="1" parent="1" source="e4gEt2wWb0Jjv1eaQD8x-110">
          <mxGeometry relative="1" as="geometry">
            <mxPoint x="399" y="540" as="targetPoint" />
          </mxGeometry>
        </mxCell>
        <mxCell id="e4gEt2wWb0Jjv1eaQD8x-110" value="Concat" style="rounded=0;whiteSpace=wrap;html=1;strokeColor=#000000;fontSize=14;fillColor=#FFFFFF;" vertex="1" parent="1">
          <mxGeometry x="372" y="477" width="54" height="30" as="geometry" />
        </mxCell>
        <mxCell id="e4gEt2wWb0Jjv1eaQD8x-113" style="edgeStyle=orthogonalEdgeStyle;rounded=0;orthogonalLoop=1;jettySize=auto;html=1;exitX=0.5;exitY=1;exitDx=0;exitDy=0;fontSize=14;" edge="1" parent="1" source="e4gEt2wWb0Jjv1eaQD8x-112">
          <mxGeometry relative="1" as="geometry">
            <mxPoint x="399" y="610" as="targetPoint" />
          </mxGeometry>
        </mxCell>
        <mxCell id="e4gEt2wWb0Jjv1eaQD8x-112" value="&lt;span style=&quot;font-size: 14px;&quot;&gt;1x1 Conv&lt;/span&gt;" style="rounded=0;whiteSpace=wrap;html=1;" vertex="1" parent="1">
          <mxGeometry x="353.5" y="540" width="90" height="30" as="geometry" />
        </mxCell>
        <mxCell id="e4gEt2wWb0Jjv1eaQD8x-114" value="&lt;font style=&quot;font-size: 14px;&quot;&gt;Input&lt;/font&gt;" style="text;html=1;align=center;verticalAlign=middle;resizable=0;points=[];autosize=1;strokeColor=none;fillColor=none;fontSize=14;" vertex="1" parent="1">
          <mxGeometry x="414" y="60" width="50" height="30" as="geometry" />
        </mxCell>
        <mxCell id="e4gEt2wWb0Jjv1eaQD8x-115" value="Output" style="text;html=1;align=center;verticalAlign=middle;resizable=0;points=[];autosize=1;strokeColor=none;fillColor=none;fontSize=14;" vertex="1" parent="1">
          <mxGeometry x="406" y="585" width="70" height="30" as="geometry" />
        </mxCell>
      </root>
    </mxGraphModel>
  </diagram>
</mxfile>
